<?xml version="1.0" encoding="utf-8"?>
<svg version="1.1" xmlns:xlink="http://www.w3.org/1999/xlink" width="20px" height="24px" xmlns="http://www.w3.org/2000/svg">
  <g transform="matrix(1 0 0 1 -755 -482 )">
    <path d="M 19.8671875 17.3515625  C 19.9557291666667 18.1380208333333  20 18.9739583333333  20 19.859375  C 20 20.9947916666667  19.6744791666667 21.96875  19.0234375 22.78125  C 18.3723958333333 23.59375  17.5885416666667 24  16.671875 24  L 3.328125 24  C 2.41145833333333 24  1.62760416666667 23.59375  0.9765625 22.78125  C 0.325520833333333 21.96875  0 20.9947916666667  0 19.859375  C 0 18.9739583333333  0.0442708333333334 18.1380208333333  0.1328125 17.3515625  C 0.221354166666667 16.5651041666667  0.385416666666667 15.7734375  0.625 14.9765625  C 0.864583333333334 14.1796875  1.16927083333333 13.4973958333333  1.5390625 12.9296875  C 1.90885416666667 12.3619791666667  2.3984375 11.8984375  3.0078125 11.5390625  C 3.6171875 11.1796875  4.31770833333333 11  5.109375 11  C 6.47395833333333 12.3333333333333  8.10416666666667 13  10 13  C 11.8958333333333 13  13.5260416666667 12.3333333333333  14.890625 11  C 15.6822916666667 11  16.3828125 11.1796875  16.9921875 11.5390625  C 17.6015625 11.8984375  18.0911458333333 12.3619791666667  18.4609375 12.9296875  C 18.8307291666667 13.4973958333333  19.1354166666667 14.1796875  19.375 14.9765625  C 19.6145833333333 15.7734375  19.7786458333333 16.5651041666667  19.8671875 17.3515625  Z M 14.2421875 1.7578125  C 15.4140625 2.9296875  16 4.34375  16 6  C 16 7.65625  15.4140625 9.0703125  14.2421875 10.2421875  C 13.0703125 11.4140625  11.65625 12  10 12  C 8.34375 12  6.9296875 11.4140625  5.7578125 10.2421875  C 4.5859375 9.0703125  4 7.65625  4 6  C 4 4.34375  4.5859375 2.9296875  5.7578125 1.7578125  C 6.9296875 0.5859375  8.34375 0  10 0  C 11.65625 0  13.0703125 0.5859375  14.2421875 1.7578125  Z " fill-rule="nonzero" fill="#ffffff" stroke="none" transform="matrix(1 0 0 1 755 482 )" />
  </g>
</svg>