<?xml version="1.0" encoding="utf-8"?>
<svg version="1.1" xmlns:xlink="http://www.w3.org/1999/xlink" width="36px" height="27px" xmlns="http://www.w3.org/2000/svg">
  <g transform="matrix(1 0 0 1 -577 -251 )">
    <path d="M 577 251  L 613 251  L 613 278  L 577 278  L 577 251  " fill-rule="nonzero" fill="#cccccc" stroke="none" />
    <path d="M 579 253  L 611 253  L 611 276  L 579 276  L 579 253  " fill-rule="nonzero" fill="#ffffff" stroke="none" />
    <path d="M 597.745 259.1  C 596.611 259.1  595.72 258.209  595.72 257.075  C 595.72 255.941  596.611 255.05  597.745 255.05  C 598.879 255.05  599.77 255.941  599.77 257.075  C 599.77 258.209  598.879 259.1  597.745 259.1  " fill-rule="nonzero" fill="#cccccc" stroke="none" />
    <path d="M 580 276  L 580 263.9  L 587.75 258.4  L 598.6 266.1  L 604.8 261.7  L 611 266.1  L 611 276  L 580 276  " fill-rule="nonzero" fill="#169bd5" stroke="none" />
  </g>
</svg>