<?xml version="1.0" encoding="utf-8"?>
<svg version="1.1" xmlns:xlink="http://www.w3.org/1999/xlink" width="29px" height="28px" xmlns="http://www.w3.org/2000/svg">
  <defs>
    <mask fill="white" id="clip8">
      <path d="M 0 14  C 0 6.15999999999997  6.37999999999997 0  14.5 0  C 20.6172413574875 0  25.7469569806574 3.49606811689605  27.9052607402631 8.57272808796792  C 28.6118801549812 10.2348048375988  29 12.066302000333  29 14  C 29 21.84  22.62 28  14.5 28  C 6.37999999999997 28  0 21.84  0 14  Z " fill-rule="evenodd" />
    </mask>
  </defs>
  <g transform="matrix(1 0 0 1 -500 -78 )">
    <path d="M 0 14  C 0 6.15999999999997  6.37999999999997 0  14.5 0  C 20.6172413574875 0  25.7469569806574 3.49606811689605  27.9052607402631 8.57272808796792  C 28.6118801549812 10.2348048375988  29 12.066302000333  29 14  C 29 21.84  22.62 28  14.5 28  C 6.37999999999997 28  0 21.84  0 14  Z " fill-rule="nonzero" fill="#ffff80" stroke="none" transform="matrix(1 0 0 1 500 78 )" />
    <path d="M 0 14  C 0 6.15999999999997  6.37999999999997 0  14.5 0  C 20.6172413574875 0  25.7469569806574 3.49606811689605  27.9052607402631 8.57272808796792  C 28.6118801549812 10.2348048375988  29 12.066302000333  29 14  C 29 21.84  22.62 28  14.5 28  C 6.37999999999997 28  0 21.84  0 14  Z " stroke-width="2" stroke="#797979" fill="none" transform="matrix(1 0 0 1 500 78 )" mask="url(#clip8)" />
  </g>
</svg>