<?xml version="1.0" encoding="utf-8"?>
<svg version="1.1" xmlns:xlink="http://www.w3.org/1999/xlink" width="21px" height="21px" xmlns="http://www.w3.org/2000/svg">
  <g transform="matrix(1 0 0 1 -2009 -338 )">
    <path d="M 2019.5 338  C 2025.38 338  2030 342.62  2030 348.5  C 2030 354.38  2025.38 359  2019.5 359  C 2013.62 359  2009 354.38  2009 348.5  C 2009 342.62  2013.62 338  2019.5 338  Z " fill-rule="nonzero" fill="#f59a23" stroke="none" />
    <path d="M 2019.5 338.5  C 2025.1 338.5  2029.5 342.9  2029.5 348.5  C 2029.5 354.1  2025.1 358.5  2019.5 358.5  C 2013.9 358.5  2009.5 354.1  2009.5 348.5  C 2009.5 342.9  2013.9 338.5  2019.5 338.5  Z " stroke-width="1" stroke="#797979" fill="none" />
  </g>
</svg>