<?xml version="1.0" encoding="utf-8"?>
<svg version="1.1" xmlns:xlink="http://www.w3.org/1999/xlink" width="21px" height="21px" xmlns="http://www.w3.org/2000/svg">
  <g transform="matrix(1 0 0 1 -2009 -389 )">
    <path d="M 2019.5 389  C 2025.38 389  2030 393.62  2030 399.5  C 2030 405.38  2025.38 410  2019.5 410  C 2013.62 410  2009 405.38  2009 399.5  C 2009 393.62  2013.62 389  2019.5 389  Z " fill-rule="nonzero" fill="#ffffff" stroke="none" />
    <path d="M 2019.5 389.5  C 2025.1 389.5  2029.5 393.9  2029.5 399.5  C 2029.5 405.1  2025.1 409.5  2019.5 409.5  C 2013.9 409.5  2009.5 405.1  2009.5 399.5  C 2009.5 393.9  2013.9 389.5  2019.5 389.5  Z " stroke-width="1" stroke="#797979" fill="none" />
  </g>
</svg>