<?xml version="1.0" encoding="utf-8"?>
<svg version="1.1" xmlns:xlink="http://www.w3.org/1999/xlink" width="27px" height="25px" xmlns="http://www.w3.org/2000/svg">
  <defs>
    <mask fill="white" id="clip3">
      <path d="M 0 12.5  C 0 5.50000000000005  5.94000000000005 0  13.5 0  C 21.0599999999999 0  27 5.50000000000005  27 12.5  C 27 12.630763209811  26.9979271803834 12.7610029803248  26.9938097020379 12.8906932366452  C 26.7775108380513 19.7035657665658  20.9187757334041 25  13.5 25  C 5.94000000000005 25  0 19.5  0 12.5  Z " fill-rule="evenodd" />
    </mask>
  </defs>
  <g transform="matrix(1 0 0 1 -639 -115 )">
    <path d="M 0 12.5  C 0 5.50000000000005  5.94000000000005 0  13.5 0  C 21.0599999999999 0  27 5.50000000000005  27 12.5  C 27 12.630763209811  26.9979271803834 12.7610029803248  26.9938097020379 12.8906932366452  C 26.7775108380513 19.7035657665658  20.9187757334041 25  13.5 25  C 5.94000000000005 25  0 19.5  0 12.5  Z " fill-rule="nonzero" fill="#95f204" stroke="none" transform="matrix(1 0 0 1 639 115 )" />
    <path d="M 0 12.5  C 0 5.50000000000005  5.94000000000005 0  13.5 0  C 21.0599999999999 0  27 5.50000000000005  27 12.5  C 27 12.630763209811  26.9979271803834 12.7610029803248  26.9938097020379 12.8906932366452  C 26.7775108380513 19.7035657665658  20.9187757334041 25  13.5 25  C 5.94000000000005 25  0 19.5  0 12.5  Z " stroke-width="2" stroke="#797979" fill="none" transform="matrix(1 0 0 1 639 115 )" mask="url(#clip3)" />
  </g>
</svg>