<?xml version="1.0" encoding="utf-8"?>
<svg version="1.1" xmlns:xlink="http://www.w3.org/1999/xlink" width="11px" height="19px" xmlns="http://www.w3.org/2000/svg">
  <g transform="matrix(1 0 0 1 -336 -114 )">
    <path d="M 6.30924479166667 17.938671875  C 6.53363715277778 17.7061197916667  6.64583333333333 17.4265625  6.64583333333333 17.1  C 6.64583333333333 16.7734375  6.53363715277778 16.4938802083333  6.30924479166667 16.261328125  C 6.08485243055556 16.0287760416667  5.81510416666667 15.9125  5.5 15.9125  C 5.18489583333333 15.9125  4.91514756944444 16.0287760416667  4.69075520833333 16.261328125  C 4.46636284722222 16.4938802083333  4.35416666666667 16.7734375  4.35416666666667 17.1  C 4.35416666666667 17.4265625  4.46636284722222 17.7061197916667  4.69075520833333 17.938671875  C 4.91514756944444 18.1712239583333  5.18489583333333 18.2875  5.5 18.2875  C 5.81510416666667 18.2875  6.08485243055556 18.1712239583333  6.30924479166667 17.938671875  Z M 9.48893229166667 15.058984375  C 9.57964409722222 14.9649739583333  9.625 14.8536458333333  9.625 14.725  L 9.625 4.275  C 9.625 4.14635416666667  9.57964409722222 4.03502604166667  9.48893229166667 3.941015625  C 9.39822048611111 3.84700520833333  9.29079861111111 3.8  9.16666666666667 3.8  L 1.83333333333333 3.8  C 1.70920138888889 3.8  1.60177951388889 3.84700520833333  1.51106770833333 3.941015625  C 1.42035590277778 4.03502604166667  1.375 4.14635416666667  1.375 4.275  L 1.375 14.725  C 1.375 14.8536458333333  1.42035590277778 14.9649739583333  1.51106770833333 15.058984375  C 1.60177951388889 15.1529947916667  1.70920138888889 15.2  1.83333333333333 15.2  L 9.16666666666667 15.2  C 9.29079861111111 15.2  9.39822048611111 15.1529947916667  9.48893229166667 15.058984375  Z M 6.64583333333333 2.375  C 6.79861111111111 2.375  6.875 2.29583333333333  6.875 2.1375  C 6.875 1.97916666666667  6.79861111111111 1.9  6.64583333333333 1.9  L 4.35416666666667 1.9  C 4.20138888888889 1.9  4.125 1.97916666666667  4.125 2.1375  C 4.125 2.29583333333333  4.20138888888889 2.375  4.35416666666667 2.375  L 6.64583333333333 2.375  Z M 10.4557291666667 0.5640625  C 10.8185763888889 0.940104166666666  11 1.38541666666667  11 1.9  L 11 17.1  C 11 17.6145833333333  10.8185763888889 18.0598958333333  10.4557291666667 18.4359375  C 10.0928819444444 18.8119791666667  9.66319444444445 19  9.16666666666667 19  L 1.83333333333333 19  C 1.33680555555556 19  0.907118055555556 18.8119791666667  0.544270833333333 18.4359375  C 0.181423611111111 18.0598958333333  0 17.6145833333333  0 17.1  L 0 1.9  C 0 1.38541666666667  0.181423611111111 0.940104166666666  0.544270833333333 0.5640625  C 0.907118055555556 0.188020833333331  1.33680555555556 0  1.83333333333333 0  L 9.16666666666667 0  C 9.66319444444445 0  10.0928819444444 0.188020833333331  10.4557291666667 0.5640625  Z " fill-rule="nonzero" fill="#000000" stroke="none" transform="matrix(1 0 0 1 336 114 )" />
  </g>
</svg>