<?xml version="1.0" encoding="utf-8"?>
<svg version="1.1" xmlns:xlink="http://www.w3.org/1999/xlink" width="30px" height="30px" xmlns="http://www.w3.org/2000/svg">
  <defs>
    <mask fill="white" id="clip15">
      <path d="M 0 15  C 0 6.73694901687028  6.38654869938614 0.215684042664066  14.5906090843689 0.00524209117081398  C 14.7267203983935 0.0017524982828121  14.8631212221582 0  15 0  C 23.4 0  30 6.59999999999999  30 15  C 30 23.4  23.4 30  15 30  C 6.60000000000002 30  0 23.4  0 15  Z " fill-rule="evenodd" />
    </mask>
  </defs>
  <g transform="matrix(1 0 0 1 -250 -125 )">
    <path d="M 0 15  C 0 6.73694901687028  6.38654869938614 0.215684042664066  14.5906090843689 0.00524209117081398  C 14.7267203983935 0.0017524982828121  14.8631212221582 0  15 0  C 23.4 0  30 6.59999999999999  30 15  C 30 23.4  23.4 30  15 30  C 6.60000000000002 30  0 23.4  0 15  Z " fill-rule="nonzero" fill="#ffff00" stroke="none" transform="matrix(1 0 0 1 250 125 )" />
    <path d="M 0 15  C 0 6.73694901687028  6.38654869938614 0.215684042664066  14.5906090843689 0.00524209117081398  C 14.7267203983935 0.0017524982828121  14.8631212221582 0  15 0  C 23.4 0  30 6.59999999999999  30 15  C 30 23.4  23.4 30  15 30  C 6.60000000000002 30  0 23.4  0 15  Z " stroke-width="2" stroke="#aaaaaa" fill="none" transform="matrix(1 0 0 1 250 125 )" mask="url(#clip15)" />
  </g>
</svg>