<?xml version="1.0" encoding="utf-8"?>
<svg version="1.1" xmlns:xlink="http://www.w3.org/1999/xlink" width="53px" height="52px" xmlns="http://www.w3.org/2000/svg">
  <g transform="matrix(1 0 0 1 -424 -492 )">
    <path d="M 52.4592472869898 25.7320092216495  C 52.4591963826531 25.1398430051546  51.9749002295919 24.6598111701031  51.377555820153 25  L 27 25  L 27 1.07221064948453  C 27.5816151441327 0.480094891752628  27.0973444094387 3.77938143856227E-05  26.4999745816326 1.25979381664365E-05  C 25.9026301721939 1.25979381664365E-05  25.4183339515306 0.480044432989644  26 1.0721854536082  L 26 25  L 1.62244417984698 25  C 1.02509977040813 24.6598363659793  0.540803549744851 25.1398682010309  0.54080361734691 25.7320092216495  C 0.54080361734691 26.3241501752577  1.02507435204086 26.8041820773196  1.62244417984698 26  L 26 26  L 26 50.3918329226805  C 25.4183848558673 50.9839991391752  25.9026555905613 51.4640057783505  26.5000254183674 51.4640057783505  C 27.0973952461735 51.4640057783505  27.5816660484694 50.9840243350516  27 50.3918329226805  L 27 26  L 51.3776066568878 26  C 51.9749510663265 26.8041820103093  52.4592472869898 26.3241753711341  52.4592472869898 25.7320092216495  Z " fill-rule="nonzero" fill="#ffffff" stroke="none" transform="matrix(1 0 0 1 424 492 )" />
  </g>
</svg>