<?xml version="1.0" encoding="utf-8"?>
<svg version="1.1" xmlns:xlink="http://www.w3.org/1999/xlink" width="23px" height="22px" xmlns="http://www.w3.org/2000/svg">
  <g transform="matrix(1 0 0 1 -29 -390 )">
    <path d="M 10.6048722519311 7.18592964824121  C 11.1150722915429 6.67001675041876  11.3701723113488 6.04355108877722  11.3701723113488 5.30653266331658  C 11.3701723113488 4.56951423785594  11.1150722915429 3.9430485762144  10.6048722519311 3.42713567839196  C 10.0946722123193 2.91122278056951  9.47514359279065 2.65326633165829  8.74628639334522 2.65326633165829  C 8.01742919389978 2.65326633165829  7.39790057437116 2.91122278056951  6.88770053475936 3.42713567839196  C 6.37750049514755 3.9430485762144  6.12240047534165 4.56951423785594  6.12240047534165 5.30653266331658  C 6.12240047534165 5.69346733668342  6.2089522677758 6.07579564489112  6.38205585264409 6.4535175879397  C 6.0085165379283 6.2784757118928  5.63042186571598 6.19095477386935  5.24777183600713 6.19095477386935  C 4.5189146365617 6.19095477386935  3.89938601703308 6.44891122278057  3.38918597742127 6.96482412060302  C 2.87898593780947 7.48073701842546  2.62388591800356 8.107202680067  2.62388591800356 8.84422110552764  C 2.62388591800356 9.58123953098827  2.87898593780947 10.2077051926298  3.38918597742127 10.7236180904523  C 3.89938601703308 11.2395309882747  4.5189146365617 11.4974874371859  5.24777183600713 11.4974874371859  C 5.97662903545257 11.4974874371859  6.59615765498118 11.2395309882747  7.10635769459299 10.7236180904523  C 7.61655773420479 10.2077051926298  7.87165775401069 9.58123953098827  7.87165775401069 8.84422110552764  C 7.87165775401069 8.4572864321608  7.78510596157655 8.0749581239531  7.61200237670826 7.69723618090452  C 7.98554169142404 7.87227805695142  8.36363636363636 7.95979899497488  8.74628639334522 7.95979899497488  C 9.47514359279065 7.95979899497488  10.0946722123193 7.70184254606365  10.6048722519311 7.18592964824121  Z M 22.6105169340463 14.4685929648241  C 22.8701723113488 14.7726130653266  23 14.9614740368509  23 15.035175879397  C 23 15.1917922948074  22.7767874826698 15.4958123953099  22.3303624480095 15.9472361809045  C 21.8839374133492 16.3986599664992  21.5832838185779 16.6243718592965  21.4284016636958 16.6243718592965  C 21.3464052287582 16.6243718592965  21.216577540107 16.5506700167504  21.0389185977421 16.4032663316583  C 20.8612596553773 16.2558626465662  20.6949891067538 16.1038525963149  20.5401069518717 15.9472361809045  C 20.3852247969895 15.7906197654941  20.2098435333729 15.606365159129  20.013963161022 15.394472361809  C 19.818082788671 15.1825795644891  19.7064765300059 15.0628140703518  19.6791443850267 15.035175879397  L 18.367201426025 16.3618090452261  L 21.3737373737374 19.4020100502513  C 21.6288373935433 19.6599664991625  21.7563874034462 19.9731993299832  21.7563874034462 20.3417085427136  C 21.7563874034462 20.7286432160804  21.5787284610814 21.1017587939698  21.2234105763518 21.4610552763819  C 20.8680926916221 21.820351758794  20.4991087344029 22  20.116458704694 22  C 19.7520301049713 22  19.442265795207 21.8710217755444  19.1871657754011 21.6130653266332  L 10.0172311348782 12.3404522613065  C 8.41374529609824 13.5473199329983  6.75103980986334 14.1507537688442  5.0291146761735 14.1507537688442  C 3.54406813230343 14.1507537688442  2.33462071697366 13.6786013400335  1.4007724301842 12.7342964824121  C 0.466924143394732 11.7899916247906  0 10.5670016750419  0 9.06532663316583  C 0 7.59128978224455  0.432758962170727 6.14949748743719  1.29827688651218 4.73994974874372  C 2.16379481085364 3.33040201005025  3.29352346999406 2.18802345058626  4.68746286393345 1.31281407035176  C 6.08140225787285 0.437604690117252  7.50722915428798 0  8.96494355317885 0  C 10.4499900970489 0  11.6594375123787 0.472152428810718  12.5932857991682 1.41645728643216  C 13.5271340859576 2.3607621440536  13.9940582293523 3.58375209380234  13.9940582293523 5.08542713567839  C 13.9940582293523 6.82663316582915  13.3973063973064 8.50795644891122  12.2038027332145 10.1293969849246  L 17.0552584670232 15.035175879397  L 18.367201426025 13.7085427135678  C 18.3398692810458 13.6809045226131  18.2214299861359 13.5680485762144  18.0118835412953 13.3699748743719  C 17.8023370964547 13.1719011725293  17.6201227965934 12.9945561139028  17.4652406417112 12.8379396984925  C 17.3103584868291 12.6813232830821  17.1600316894435 12.5131909547739  17.0142602495544 12.3335427135678  C 16.8684888096653 12.1538944723618  16.7956030897207 12.0226130653266  16.7956030897207 11.9396984924623  C 16.7956030897207 11.7830820770519  17.0188156070509 11.4790619765494  17.4652406417112 11.0276381909548  C 17.9116656763716 10.5762144053601  18.2123192711428 10.3505025125628  18.367201426025 10.3505025125628  C 18.4856407209348 10.3505025125628  18.5904139433551 10.3965661641541  18.6815210932858 10.4886934673367  C 18.7361853832442 10.5439698492462  18.9457318280848 10.7489530988275  19.3101604278075 11.1036432160804  C 19.6745890275302 11.4583333333333  20.048128342246 11.8245393634841  20.4307783719548 12.2022613065327  C 20.8134284016637 12.5799832495812  21.2074668251139 12.9761306532663  21.6128936423054 13.3907035175879  C 22.0183204594969 13.8052763819095  22.3508615567439 14.1645728643216  22.6105169340463 14.4685929648241  Z " fill-rule="nonzero" fill="#d7d7d7" stroke="none" transform="matrix(1 0 0 1 29 390 )" />
  </g>
</svg>