<?xml version="1.0" encoding="utf-8"?>
<svg version="1.1" xmlns:xlink="http://www.w3.org/1999/xlink" width="30px" height="30px" xmlns="http://www.w3.org/2000/svg">
  <defs>
    <mask fill="white" id="clip137">
      <path d="M 0 15  C 0 6.60000000000002  6.59999999999991 0  15 0  C 18.4225425966586 0  21.5462638202064 1.09567836807287  24.0464878362741 2.96235926984912  C 27.6826028552478 5.67710259643138  30 10.0225425966586  30 15  C 30 23.4  23.4000000000001 30  15 30  C 6.59999999999991 30  0 23.4  0 15  Z " fill-rule="evenodd" />
    </mask>
  </defs>
  <g transform="matrix(1 0 0 1 -60 -1346 )">
    <path d="M 0 15  C 0 6.60000000000002  6.59999999999991 0  15 0  C 18.4225425966586 0  21.5462638202064 1.09567836807287  24.0464878362741 2.96235926984912  C 27.6826028552478 5.67710259643138  30 10.0225425966586  30 15  C 30 23.4  23.4000000000001 30  15 30  C 6.59999999999991 30  0 23.4  0 15  Z " fill-rule="nonzero" fill="#ffff00" stroke="none" transform="matrix(1 0 0 1 60 1346 )" />
    <path d="M 0 15  C 0 6.60000000000002  6.59999999999991 0  15 0  C 18.4225425966586 0  21.5462638202064 1.09567836807287  24.0464878362741 2.96235926984912  C 27.6826028552478 5.67710259643138  30 10.0225425966586  30 15  C 30 23.4  23.4000000000001 30  15 30  C 6.59999999999991 30  0 23.4  0 15  Z " stroke-width="2" stroke="#aaaaaa" fill="none" transform="matrix(1 0 0 1 60 1346 )" mask="url(#clip137)" />
  </g>
</svg>